<svg width="20" height="20" viewBox="0 0 20 20" fill="none" xmlns="http://www.w3.org/2000/svg">
<path d="M14.6993 0C14.2481 0.0250627 13.797 0.075188 13.3709 0.225564C12.6942 0.47619 12.0426 0.85213 11.4912 1.40351C11.3326 1.50408 11.1986 1.63902 11.0991 1.79837C10.9997 1.95771 10.9373 2.13738 10.9166 2.32408C10.896 2.51077 10.9175 2.69973 10.9798 2.87696C11.042 3.0542 11.1432 3.21518 11.2761 3.348C11.4089 3.48082 11.5699 3.58208 11.7471 3.6443C11.9243 3.70651 12.1133 3.72809 12.3 3.70743C12.4867 3.68677 12.6663 3.62441 12.8257 3.52495C12.985 3.42549 13.12 3.29148 13.2206 3.13283C13.4962 2.85714 13.8221 2.70677 14.1729 2.58145C15.0501 2.2807 16.1278 2.40601 16.8296 3.13283C17.807 4.11028 17.807 5.73935 16.8296 6.74185L13.0702 10.5013C11.9674 11.604 11.0652 11.7043 10.4135 11.6792C9.76191 11.6541 9.38597 11.3534 9.38597 11.3534C9.24115 11.2711 9.08154 11.2181 8.91626 11.1975C8.75098 11.1769 8.58326 11.1891 8.42268 11.2333C8.2621 11.2775 8.1118 11.353 7.98036 11.4553C7.84892 11.5576 7.73892 11.6848 7.65664 11.8296C7.57436 11.9744 7.52141 12.134 7.50081 12.2993C7.48021 12.4646 7.49236 12.6323 7.53658 12.7929C7.5808 12.9534 7.65622 13.1037 7.75852 13.2352C7.86082 13.3666 7.98802 13.4766 8.13283 13.5589C8.13283 13.5589 8.98496 14.1103 10.2381 14.1855C11.4912 14.2607 13.2456 13.7845 14.7744 12.2306L18.5338 8.47118C20.4887 6.51629 20.4887 3.3584 18.5338 1.42857C17.8321 0.726817 17.005 0.300752 16.1028 0.100251C15.6516 0 15.1504 0 14.6993 0.0250627V0ZM9.68672 5.78947C8.43359 5.73935 6.70426 6.16541 5.22556 7.66917L1.46617 11.4286C-0.488722 13.3835 -0.488722 16.5414 1.46617 18.4712C2.86967 19.8747 4.87469 20.2757 6.62907 19.6491C7.30577 19.3985 7.95739 19.0226 8.50877 18.4712C8.66742 18.3706 8.80143 18.2357 8.90089 18.0763C9.00035 17.917 9.06271 17.7373 9.08337 17.5506C9.10403 17.3639 9.08245 17.175 9.02024 16.9977C8.95802 16.8205 8.85676 16.6595 8.72394 16.5267C8.59112 16.3939 8.43014 16.2926 8.2529 16.2304C8.07567 16.1682 7.88671 16.1466 7.70002 16.1673C7.51332 16.1879 7.33365 16.2503 7.17431 16.3497C7.01496 16.4492 6.88002 16.5832 6.77945 16.7419C6.50376 17.0175 6.17795 17.1679 5.82707 17.2932C4.94987 17.594 3.87218 17.4687 3.17043 16.7419C2.19298 15.7644 2.19298 14.1353 3.17043 13.1328L6.92982 9.37343C7.93233 8.37093 8.80952 8.24561 9.51128 8.27068C10.213 8.29574 10.6892 8.49624 10.6892 8.49624C10.8361 8.60637 11.0053 8.6829 11.185 8.72041C11.3647 8.75793 11.5504 8.75552 11.729 8.71334C11.9077 8.67117 12.0748 8.59027 12.2188 8.47637C12.3627 8.36246 12.4799 8.21832 12.5619 8.05415C12.644 7.88998 12.689 7.70978 12.6938 7.52629C12.6986 7.34281 12.663 7.16051 12.5895 6.9923C12.5161 6.82408 12.4066 6.67406 12.2688 6.55283C12.131 6.4316 11.9682 6.34212 11.792 6.29073C11.792 6.29073 10.9399 5.78947 9.68672 5.73935V5.78947Z" fill="black"/>
</svg>
