<svg width="40" height="49" viewBox="0 0 40 49" fill="none" xmlns="http://www.w3.org/2000/svg">
<path d="M40 45.425V48.5423H22.5434V45.425H40Z" fill="black"/>
<path fill-rule="evenodd" clip-rule="evenodd" d="M22.1254 0.309967H24.8707V9.88836H22.1254V0.309967ZM22.1254 13.0056V15.3206C22.1254 16.8703 22.4907 18.254 23.2213 19.4717C23.9445 20.682 24.9666 21.6377 26.2876 22.3388C27.6086 23.0325 29.1584 23.3793 30.937 23.3793C32.7155 23.3793 34.2652 23.0325 35.5863 22.3388C36.9072 21.6377 37.933 20.682 38.6636 19.4717C39.3869 18.254 39.7485 16.8703 39.7485 15.3206V13.0056H37.0032V15.0992C37.0032 16.2061 36.7597 17.1914 36.2726 18.0548C35.7855 18.9108 35.0918 19.5861 34.1914 20.0805C33.2837 20.5676 32.1989 20.8112 30.937 20.8112C29.675 20.8112 28.5902 20.5676 27.6824 20.0805C26.7747 19.5861 26.081 18.9108 25.6013 18.0548C25.1142 17.1914 24.8707 16.2061 24.8707 15.0992V13.0056H22.1254ZM37.0032 9.88836H39.7485V0.309967H37.0032V9.88836Z" fill="black"/>
<path fill-rule="evenodd" clip-rule="evenodd" d="M11.7561 3.36519C12.7007 3.98509 13.2394 4.85592 13.3723 5.97769H16.029C15.9922 4.83379 15.6379 3.81171 14.9663 2.91132C14.3022 2.011 13.4018 1.30257 12.2653 0.785983C11.1288 0.261974 9.82998 0 8.36874 0C6.92228 0 5.61235 0.265651 4.43898 0.797017C3.27296 1.32096 2.3431 2.059 1.6494 3.01101C0.963067 3.9556 0.619908 5.0626 0.619908 6.33194C0.619908 7.77895 1.08345 8.96449 2.01051 9.88839H7.38893C7.04343 9.78998 6.67264 9.67084 6.27657 9.53104C5.77476 9.34657 5.29501 9.11408 4.83746 8.83365C4.37994 8.54587 4.00357 8.18795 3.70837 7.75989C3.42056 7.32447 3.27665 6.8042 3.27665 6.19908C3.27665 5.47582 3.48329 4.83011 3.89656 4.26184C4.31721 3.69363 4.90024 3.24711 5.64558 2.92242C6.39833 2.59773 7.27652 2.43538 8.28021 2.43538C9.65286 2.43538 10.8115 2.7453 11.7561 3.36519ZM14.8158 13.0056H9.12229L9.16576 13.0181C9.96278 13.2394 10.7045 13.4977 11.3908 13.7929C12.0771 14.0881 12.6306 14.4719 13.0513 14.9442C13.4719 15.4165 13.6822 16.029 13.6822 16.7818C13.6822 17.6083 13.4387 18.3315 12.9517 18.9514C12.4646 19.564 11.8041 20.0436 10.9701 20.3905C10.1362 20.73 9.19531 20.8997 8.14735 20.8997C7.24703 20.8997 6.40569 20.7669 5.62344 20.5012C4.84856 20.2282 4.20651 19.8149 3.6973 19.2614C3.19547 18.7006 2.90766 17.9921 2.83386 17.136H0C0.0885547 18.3758 0.468622 19.4643 1.14018 20.4016C1.81913 21.3388 2.74899 22.0694 3.92977 22.5934C5.11795 23.1174 6.52377 23.3793 8.14735 23.3793C9.88902 23.3793 11.3687 23.0878 12.5863 22.5048C13.8114 21.9218 14.7413 21.1359 15.3759 20.147C16.018 19.1581 16.339 18.0511 16.339 16.826C16.339 15.7634 16.1213 14.8667 15.6859 14.1361C15.435 13.7152 15.145 13.3384 14.8158 13.0056Z" fill="black"/>
<path fill-rule="evenodd" clip-rule="evenodd" d="M25.6607 25.4746H22.5435V36.6967H25.6607V25.4746ZM25.6607 39.814H22.5435V48.5423H25.6607V39.814Z" fill="black"/>
<path fill-rule="evenodd" clip-rule="evenodd" d="M1.5976 39.814V48.5423H4.3429V39.814H1.5976ZM1.5976 36.6967H4.3429V28.3067H9.16932C10.3944 28.3067 11.3796 28.4949 12.125 28.8713C12.8703 29.2403 13.4127 29.7642 13.7522 30.4432C14.0917 31.1222 14.2614 31.9155 14.2614 32.8232C14.2614 33.7309 14.0917 34.5132 13.7522 35.17C13.4201 35.8194 12.8814 36.3212 12.136 36.6755C12.1211 36.6826 12.1061 36.6897 12.091 36.6967H15.9604C16.0246 36.5925 16.0856 36.4858 16.1433 36.3766C16.6894 35.3434 16.9624 34.159 16.9624 32.8232C16.9624 31.4874 16.6894 30.2956 16.1433 29.2476C15.5971 28.1997 14.7559 27.3768 13.6194 26.7791C12.4829 26.174 11.0291 25.8714 9.25785 25.8714H1.5976V36.6967ZM9.95422 39.814H13.0664L17.848 48.5423H14.6599L9.95422 39.814Z" fill="black"/>
</svg>
